<?xml version="1.0" encoding="utf-8"?>
<!-- Generator: Adobe Illustrator 19.0.0, SVG Export Plug-In . SVG Version: 6.00 Build 0)  -->
<svg version="1.1" id="Layer_1" xmlns="http://www.w3.org/2000/svg" xmlns:xlink="http://www.w3.org/1999/xlink" x="0px" y="0px"
	 viewBox="0 0 96 96" style="enable-background:new 0 0 96 96;" xml:space="preserve">
<style type="text/css">
	.st0{fill:#333333;}
</style>
<g id="XMLID_5_">
	<path id="XMLID_9_" class="st0" d="M69.7,50.9c0.1-0.9,0.2-1.9,0.2-2.9s-0.1-1.9-0.2-2.9l6.2-4.8c0.6-0.4,0.7-1.2,0.4-1.9
		l-5.8-10.1c-0.4-0.6-1.1-0.9-1.8-0.6l-7.3,2.9c-1.5-1.2-3.2-2.1-4.9-2.9l-1.1-7.7c-0.1-0.7-0.7-1.2-1.4-1.2H42.2
		c-0.7,0-1.3,0.5-1.4,1.2l-1.1,7.7c-1.8,0.7-3.4,1.7-4.9,2.9l-7.3-2.9c-0.7-0.3-1.4,0-1.8,0.6l-5.8,10.1c-0.4,0.6-0.2,1.4,0.4,1.9
		l6.2,4.8c-0.1,0.9-0.2,1.9-0.2,2.9s0.1,1.9,0.2,2.9l-6.2,4.8c-0.6,0.4-0.7,1.2-0.4,1.9l5.8,10.1c0.3,0.6,1.1,0.9,1.8,0.6l7.3-2.9
		c1.5,1.2,3.2,2.1,4.9,2.9l1.1,7.7c0.1,0.7,0.7,1.2,1.4,1.2h11.7c0.7,0,1.3-0.5,1.4-1.2l1.1-7.7c1.8-0.7,3.4-1.7,4.9-2.9l7.3,2.9
		c0.7,0.3,1.4,0,1.8-0.6l5.8-10.1c0.3-0.6,0.2-1.4-0.4-1.9L69.7,50.9z M48,58.2c-5.6,0-10.2-4.6-10.2-10.2S42.4,37.8,48,37.8
		S58.2,42.4,58.2,48S53.6,58.2,48,58.2z"/>
</g>
</svg>
